<svg width="34" height="60" viewBox="0 0 48 60" fill="none" xmlns="http://www.w3.org/2000/svg">
<path d="M6.95742 9.83008H0.957422C0.428672 9.83008 0 10.2588 0 10.7875V16.7875C0 17.3163 0.428672 17.7449 0.957422 17.7449H6.95742C7.48617 17.7449 7.91484 17.3163 7.91484 16.7875V10.7875C7.91496 10.2588 7.48617 9.83008 6.95742 9.83008ZM6 15.8301H1.91484V11.7449H6V15.8301Z" fill="#260d0d"/>
<path d="M16.7873 9.83008H10.7873C10.2585 9.83008 9.82983 10.2588 9.82983 10.7875V16.7875C9.82983 17.3163 10.2585 17.7449 10.7873 17.7449H16.7873C17.316 17.7449 17.7447 17.3163 17.7447 16.7875V10.7875C17.7447 10.2588 17.316 9.83008 16.7873 9.83008ZM15.8298 15.8301H11.7447V11.7449H15.8298V15.8301Z" fill="#FF4949"/>
<path d="M16.7873 29.4893H10.7873C10.2585 29.4893 9.82983 29.9179 9.82983 30.4467V36.4467C9.82983 36.9754 10.2585 37.4041 10.7873 37.4041H16.7873C17.316 37.4041 17.7447 36.9754 17.7447 36.4467V30.4467C17.7447 29.9179 17.316 29.4893 16.7873 29.4893ZM15.8298 35.4893H11.7447V31.4041H15.8298V35.4893Z" fill="#260d0d"/>
<path d="M26.6168 29.4893H20.6168C20.0881 29.4893 19.6594 29.9179 19.6594 30.4467V36.4467C19.6594 36.9754 20.0881 37.4041 20.6168 37.4041H26.6168C27.1456 37.4041 27.5743 36.9754 27.5743 36.4467V30.4467C27.5743 29.9179 27.1456 29.4893 26.6168 29.4893ZM25.6594 35.4893H21.5743V31.4041H25.6594V35.4893Z" fill="#FF4949"/>
<path d="M36.4467 39.3193H30.4467C29.9179 39.3193 29.4893 39.748 29.4893 40.2768V46.2768C29.4893 46.8055 29.9179 47.2342 30.4467 47.2342H36.4467C36.9754 47.2342 37.4041 46.8055 37.4041 46.2768V40.2768C37.4041 39.748 36.9754 39.3193 36.4467 39.3193ZM35.4893 45.3193H31.4041V41.2342H35.4893V45.3193Z" fill="#260d0d"/>
<path d="M26.6168 9.83008H20.6168C20.0881 9.83008 19.6594 10.2588 19.6594 10.7875V16.7875C19.6594 17.3163 20.0881 17.7449 20.6168 17.7449H26.6168C27.1456 17.7449 27.5743 17.3163 27.5743 16.7875V10.7875C27.5743 10.2588 27.1456 9.83008 26.6168 9.83008ZM25.6594 15.8301H21.5743V11.7449H25.6594V15.8301Z" fill="#260d0d"/>
<path d="M36.4467 9.83008H30.4467C29.9179 9.83008 29.4893 10.2588 29.4893 10.7875V16.7875C29.4893 17.3163 29.9179 17.7449 30.4467 17.7449H36.4467C36.9754 17.7449 37.4041 17.3163 37.4041 16.7875V10.7875C37.4041 10.2588 36.9754 9.83008 36.4467 9.83008ZM35.4893 15.8301H31.4041V11.7449H35.4893V15.8301Z" fill="#FF4949"/>
<path d="M46.2765 9.83008H40.2765C39.7478 9.83008 39.3191 10.2588 39.3191 10.7875V16.7875C39.3191 17.3163 39.7478 17.7449 40.2765 17.7449H46.2765C46.8053 17.7449 47.2339 17.3163 47.2339 16.7875V10.7875C47.2339 10.2588 46.8053 9.83008 46.2765 9.83008ZM45.319 15.8301H41.2338V11.7449H45.319V15.8301Z" fill="#260d0d"/>
<path d="M16.7873 0H10.7873C10.2585 0 9.82983 0.428672 9.82983 0.957422V6.95742C9.82983 7.48617 10.2585 7.91484 10.7873 7.91484H16.7873C17.316 7.91484 17.7447 7.48617 17.7447 6.95742V0.957422C17.7447 0.428672 17.316 0 16.7873 0ZM15.8298 6H11.7447V1.91484H15.8298V6Z" fill="#FF4949"/>
<path d="M26.6168 0H20.6168C20.0881 0 19.6594 0.428672 19.6594 0.957422V6.95742C19.6594 7.48617 20.0881 7.91484 20.6168 7.91484H26.6168C27.1456 7.91484 27.5743 7.48617 27.5743 6.95742V0.957422C27.5743 0.428672 27.1456 0 26.6168 0ZM25.6594 6H21.5743V1.91484H25.6594V6Z" fill="#FF4949"/>
<path d="M46.2765 0H40.2765C39.7478 0 39.3191 0.428672 39.3191 0.957422V6.95742C39.3191 7.48617 39.7478 7.91484 40.2765 7.91484H46.2765C46.8053 7.91484 47.2339 7.48617 47.2339 6.95742V0.957422C47.2339 0.428672 46.8053 0 46.2765 0ZM45.319 6H41.2338V1.91484H45.319V6Z" fill="#FF4949"/>
<path d="M46.2765 19.6592H30.4467C29.918 19.6592 29.4893 20.0879 29.4893 20.6166V25.6592H27.5745V20.6166C27.5745 20.0879 27.1458 19.6592 26.617 19.6592H20.617C20.0883 19.6592 19.6596 20.0879 19.6596 20.6166V25.6592H17.7448V20.6166C17.7448 20.0879 17.3161 19.6592 16.7873 19.6592H10.7873C10.2586 19.6592 9.82992 20.0879 9.82992 20.6166V25.6592H7.91508V20.6166C7.91508 20.0879 7.48641 19.6592 6.95766 19.6592H0.957656C0.428906 19.6592 0.000234246 20.0879 0.000234246 20.6166V36.4464C0.000234246 36.9752 0.428906 37.4038 0.957656 37.4038C1.48641 37.4038 1.91508 36.9752 1.91508 36.4464V27.574H30.447C30.9757 27.574 31.4044 27.1454 31.4044 26.6166V21.574H45.3192V50.4251H38.6169C38.0882 50.4251 37.6595 50.8538 37.6595 51.3825V58.0846H1.91484V40.2762C1.91484 39.7475 1.48617 39.3188 0.957422 39.3188C0.428672 39.3188 0 39.7475 0 40.2762V59.0421C0 59.5709 0.428672 59.9996 0.957422 59.9996H38.6169C38.6489 59.9996 38.6809 59.9979 38.7125 59.9948C38.7348 59.9925 38.7565 59.9887 38.7783 59.9849C38.7873 59.9834 38.7966 59.9826 38.8056 59.9808C38.8315 59.9756 38.8567 59.9689 38.8818 59.9617C38.8866 59.9603 38.8915 59.9594 38.8963 59.958C38.9217 59.9502 38.9463 59.941 38.9708 59.9313C38.9753 59.9295 38.9798 59.9282 38.9843 59.9263C39.0072 59.9167 39.0294 59.9059 39.0513 59.8947C39.0572 59.8918 39.0633 59.8892 39.0693 59.8861C39.0891 59.8756 39.1079 59.8636 39.1268 59.8517C39.1343 59.847 39.1423 59.8428 39.1498 59.8377C39.1668 59.8263 39.1828 59.8137 39.199 59.8012C39.2075 59.7945 39.2166 59.7886 39.2249 59.7817C39.244 59.766 39.2621 59.749 39.2801 59.7318C39.2846 59.7275 39.2897 59.7236 39.294 59.7191L46.9533 52.0597C46.9753 52.0376 46.9964 52.0143 47.0162 51.99C47.0214 51.9838 47.0257 51.9772 47.0306 51.9708C47.0449 51.9525 47.0591 51.9341 47.072 51.9149C47.0761 51.9089 47.0794 51.9025 47.0832 51.8964C47.0961 51.8761 47.1089 51.8557 47.1204 51.8344C47.123 51.8298 47.1248 51.8248 47.1273 51.8201C47.1391 51.797 47.1506 51.7736 47.1606 51.7497C47.162 51.7463 47.163 51.7428 47.1645 51.7394C47.1746 51.7139 47.1843 51.6882 47.1922 51.6618C47.1934 51.6579 47.1941 51.6541 47.1952 51.6502C47.2027 51.6243 47.2096 51.598 47.215 51.5712C47.2166 51.5631 47.2173 51.5549 47.2187 51.5468C47.2227 51.5241 47.2267 51.5015 47.2289 51.4783C47.2321 51.4466 47.2337 51.4148 47.2337 51.3827V20.6166C47.2339 20.0879 46.8053 19.6592 46.2765 19.6592ZM5.99988 25.6592H1.91473V21.574H5.99988V25.6592ZM15.8297 25.6592H11.7445V21.574H15.8297V25.6592ZM25.6595 25.6592H21.5743V21.574H25.6595V25.6592ZM39.5743 56.7307V52.34H43.9651L39.5743 56.7307Z" fill="#C10000"/>
</svg>
