<svg width="37" height="77" viewBox="0 0 167 157" fill="none" xmlns="http://www.w3.org/2000/svg">
<path d="M0 29.8431C0 17.228 7.93215 5.97548 19.8135 1.73584C24.2098 0.167088 28.9128 -0.348517 33.5446 0.230457L41.3785 1.20969C44.7679 1.63337 48.0601 2.6328 51.1131 4.16487L80.6496 18.9872C84.8254 21.0827 89.433 22.174 94.1052 22.174H136.322C153.153 22.174 166.69 36.0178 166.314 52.8446L164.656 127.021C164.291 143.324 150.971 156.35 134.663 156.35H30C13.4315 156.35 0 142.918 0 126.35V29.8431Z" fill="#7E8EF1"/>
<path d="M52.832 113.85H51.552C49.3333 113.85 47.2 113.637 45.152 113.21C43.104 112.783 41.2693 112.015 39.648 110.906C38.112 109.797 36.832 108.261 35.808 106.298C34.8693 104.335 34.4 101.775 34.4 98.6179V20.9219H36.448C38.496 20.9219 40.5013 21.1779 42.464 21.6899C44.4267 22.1165 46.176 22.9272 47.712 24.1219C49.248 25.2312 50.4853 26.7672 51.424 28.7299C52.3627 30.6925 52.832 33.2099 52.832 36.2819V113.85Z" fill="white"/>
<path d="M103.72 145.35H102.44C100.221 145.35 98.088 145.137 96.04 144.71C93.992 144.283 92.1573 143.515 90.536 142.406C89 141.297 87.72 139.761 86.696 137.798C85.7573 135.835 85.288 133.275 85.288 130.118V52.4219H87.336C89.384 52.4219 91.3893 52.6779 93.352 53.1899C95.3147 53.6165 97.064 54.4272 98.6 55.6219C100.136 56.7312 101.373 58.2672 102.312 60.2299C103.251 62.1925 103.72 64.7099 103.72 67.7819V145.35ZM57.64 65.0939C57.64 63.6432 57.896 62.1925 58.408 60.7419C58.92 59.2912 59.7307 57.9685 60.84 56.7739C61.9493 55.5792 63.3147 54.6405 64.936 53.9579C66.5573 53.1899 68.4773 52.8059 70.696 52.8059C73 52.8059 74.9627 53.2325 76.584 54.0859C78.2053 54.8539 79.4853 55.8352 80.424 57.0299C81.448 58.1392 82.1733 59.3765 82.6 60.7419C83.112 62.0219 83.368 63.1739 83.368 64.1979C83.368 64.8805 83.3253 65.5205 83.24 66.1179C83.24 66.6299 83.112 67.2272 82.856 67.9099C81.6613 66.8859 80.296 66.3739 78.76 66.3739C77.48 66.3739 76.4133 66.8005 75.56 67.6539C74.7067 68.4219 74.28 69.6165 74.28 71.2379V77.5099C73.5973 77.6805 72.744 77.7659 71.72 77.7659C70.5253 77.7659 69.1173 77.6379 67.496 77.3819C65.8747 77.0405 64.3387 76.4005 62.888 75.4619C61.4373 74.5232 60.2 73.2432 59.176 71.6219C58.152 70.0005 57.64 67.8245 57.64 65.0939ZM131.496 65.0939C131.496 67.8245 130.984 70.0005 129.96 71.6219C128.936 73.2432 127.699 74.5232 126.248 75.4619C124.797 76.4005 123.261 77.0405 121.64 77.3819C120.019 77.6379 118.611 77.7659 117.416 77.7659C116.392 77.7659 115.539 77.6805 114.856 77.5099V71.6219C114.856 69.8299 114.429 68.5072 113.576 67.6539C112.723 66.8005 111.656 66.3739 110.376 66.3739C108.755 66.3739 107.389 66.8859 106.28 67.9099C106.024 67.2272 105.853 66.6299 105.768 66.1179C105.768 65.5205 105.768 64.8805 105.768 64.1979C105.768 63.1739 105.981 62.0219 106.408 60.7419C106.92 59.3765 107.645 58.1392 108.584 57.0299C109.608 55.8352 110.888 54.8539 112.424 54.0859C114.045 53.2325 115.965 52.8059 118.184 52.8059C120.488 52.8059 122.451 53.1899 124.072 53.9579C125.779 54.7259 127.144 55.7072 128.168 56.9019C129.277 58.0112 130.088 59.3339 130.6 60.8699C131.197 62.3205 131.496 63.7285 131.496 65.0939Z" fill="white" fill-opacity="0.99"/>
</svg>
