<svg width="37" height="157" viewBox="0 0 167 157" fill="none" xmlns="http://www.w3.org/2000/svg">
<path d="M0 30.4935C0 17.8784 7.93215 6.62587 19.8135 2.38623C24.2098 0.817479 28.9128 0.301874 33.5446 0.880848L41.3785 1.86008C44.7679 2.28376 48.0601 3.28319 51.1131 4.81526L80.6496 19.6376C84.8254 21.7331 89.433 22.8244 94.1052 22.8244H136.322C153.153 22.8244 166.69 36.6681 166.314 53.495L164.656 127.671C164.291 143.974 150.971 157 134.663 157H30C13.4315 157 0 143.569 0 127V30.4935Z" fill="#615EFC"/>
<path d="M52.832 114.5H51.552C49.3333 114.5 47.2 114.287 45.152 113.86C43.104 113.434 41.2693 112.666 39.648 111.556C38.112 110.447 36.832 108.911 35.808 106.948C34.8693 104.986 34.4 102.426 34.4 99.2683V21.5723H36.448C38.496 21.5723 40.5013 21.8283 42.464 22.3403C44.4267 22.7669 46.176 23.5776 47.712 24.7723C49.248 25.8816 50.4853 27.4176 51.424 29.3803C52.3627 31.3429 52.832 33.8603 52.832 36.9323V114.5Z" fill="white"/>
<path d="M103.72 146H102.44C100.221 146 98.088 145.787 96.04 145.36C93.992 144.934 92.1573 144.166 90.536 143.056C89 141.947 87.72 140.411 86.696 138.448C85.7573 136.486 85.288 133.926 85.288 130.768V53.0723H87.336C89.384 53.0723 91.3893 53.3283 93.352 53.8403C95.3147 54.2669 97.064 55.0776 98.6 56.2723C100.136 57.3816 101.373 58.9176 102.312 60.8803C103.251 62.8429 103.72 65.3603 103.72 68.4323V146ZM57.64 65.7443C57.64 64.2936 57.896 62.8429 58.408 61.3923C58.92 59.9416 59.7307 58.6189 60.84 57.4243C61.9493 56.2296 63.3147 55.2909 64.936 54.6083C66.5573 53.8403 68.4773 53.4563 70.696 53.4563C73 53.4563 74.9627 53.8829 76.584 54.7363C78.2053 55.5043 79.4853 56.4856 80.424 57.6803C81.448 58.7896 82.1733 60.0269 82.6 61.3923C83.112 62.6723 83.368 63.8243 83.368 64.8483C83.368 65.5309 83.3253 66.1709 83.24 66.7683C83.24 67.2803 83.112 67.8776 82.856 68.5603C81.6613 67.5363 80.296 67.0243 78.76 67.0243C77.48 67.0243 76.4133 67.4509 75.56 68.3043C74.7067 69.0723 74.28 70.2669 74.28 71.8883V78.1603C73.5973 78.3309 72.744 78.4163 71.72 78.4163C70.5253 78.4163 69.1173 78.2883 67.496 78.0323C65.8747 77.6909 64.3387 77.0509 62.888 76.1123C61.4373 75.1736 60.2 73.8936 59.176 72.2723C58.152 70.6509 57.64 68.4749 57.64 65.7443ZM131.496 65.7443C131.496 68.4749 130.984 70.6509 129.96 72.2723C128.936 73.8936 127.699 75.1736 126.248 76.1123C124.797 77.0509 123.261 77.6909 121.64 78.0323C120.019 78.2883 118.611 78.4163 117.416 78.4163C116.392 78.4163 115.539 78.3309 114.856 78.1603V72.2723C114.856 70.4803 114.429 69.1576 113.576 68.3043C112.723 67.4509 111.656 67.0243 110.376 67.0243C108.755 67.0243 107.389 67.5363 106.28 68.5603C106.024 67.8776 105.853 67.2803 105.768 66.7683C105.768 66.1709 105.768 65.5309 105.768 64.8483C105.768 63.8243 105.981 62.6723 106.408 61.3923C106.92 60.0269 107.645 58.7896 108.584 57.6803C109.608 56.4856 110.888 55.5043 112.424 54.7363C114.045 53.8829 115.965 53.4563 118.184 53.4563C120.488 53.4563 122.451 53.8403 124.072 54.6083C125.779 55.3763 127.144 56.3576 128.168 57.5523C129.277 58.6616 130.088 59.9843 130.6 61.5203C131.197 62.9709 131.496 64.3789 131.496 65.7443Z" fill="white" fill-opacity="0.99"/>
</svg>
