<svg width="120" height="41" viewBox="0 0 120 41" fill="none" xmlns="http://www.w3.org/2000/svg">
<path d="M6.95802 34.6938H6.47483C5.63729 34.6938 4.83196 34.6142 4.05885 34.4549C3.28573 34.2956 2.59315 34.0089 1.9811 33.5947C1.40127 33.1805 0.918073 32.6071 0.531516 31.8744C0.177172 31.1416 0 30.1859 0 29.0071V0H0.773114C1.54623 0 2.30324 0.095575 3.04414 0.286725C3.78504 0.446017 4.4454 0.748672 5.02524 1.19469C5.60508 1.60885 6.07217 2.1823 6.42651 2.91505C6.78085 3.64779 6.95802 4.58761 6.95802 5.73452V34.6938Z" fill="#615EFC"/>
<path d="M22.5721 17.8726C22.5721 17.4903 22.5398 17.1239 22.4754 16.7735C22.4432 16.423 22.3466 16.1204 22.1855 15.8655C22.0566 15.5788 21.8473 15.3558 21.5573 15.1965C21.2996 15.0053 20.9292 14.9097 20.446 14.9097C20.1883 14.9097 19.9145 14.9575 19.6246 15.0531C19.3669 15.1168 19.1253 15.2443 18.8998 15.4354C18.7709 15.1805 18.6904 14.9416 18.6582 14.7186C18.626 14.4637 18.6098 14.2089 18.6098 13.954C18.6098 12.9345 19.0769 12.0903 20.0111 11.4212C20.9453 10.7522 22.1372 10.4177 23.5868 10.4177C25.3263 10.4177 26.6631 10.9434 27.5973 11.9947C28.5637 13.0142 29.0469 14.5274 29.0469 16.5345V34.6938H28.757C26.8242 34.6938 25.3102 34.2478 24.2149 33.3558C23.1197 32.4319 22.5721 30.9664 22.5721 28.9593V17.8726ZM11.5552 10.4177H12.0867C13.7618 10.4177 15.163 10.8637 16.2905 11.7558C17.4502 12.6478 18.03 14.0655 18.03 16.0089V34.6938H17.7401C16.9992 34.6938 16.2583 34.5983 15.5174 34.4071C14.8087 34.216 14.1483 33.9133 13.5363 33.4991C12.9565 33.0531 12.4733 32.4956 12.0867 31.8266C11.7324 31.1257 11.5552 30.2655 11.5552 29.246V10.4177Z" fill="#615EFC"/>
<path d="M39.8777 27.239C39.8777 27.6213 39.8938 27.9876 39.926 28.3381C39.9904 28.6885 40.087 29.0071 40.2159 29.2938C40.377 29.5487 40.5863 29.7717 40.844 29.9628C41.134 30.1221 41.5205 30.2018 42.0037 30.2018C42.2614 30.2018 42.5191 30.1699 42.7768 30.1062C43.0667 30.0106 43.3245 29.8673 43.5499 29.6761C43.6788 29.931 43.7593 30.1859 43.7915 30.4407C43.8238 30.6637 43.8399 30.9027 43.8399 31.1575C43.8399 32.177 43.405 33.0213 42.5352 33.6903C41.6655 34.3593 40.6186 34.6938 39.3945 34.6938C37.4617 34.6938 35.9799 34.1841 34.9491 33.1646C33.9182 32.1451 33.4028 30.8708 33.4028 29.3416V16.0566C33.4028 15.0053 33.5961 14.1292 33.9827 13.4283C34.4014 12.6956 34.9168 12.1062 35.5289 11.6602C36.1731 11.2142 36.8657 10.8956 37.6066 10.7044C38.3797 10.5133 39.1368 10.4177 39.8777 10.4177V27.239ZM50.8945 29.0549C50.8945 30.1699 50.6851 31.0938 50.2664 31.8266C49.8798 32.5275 49.3644 33.1009 48.7201 33.5469C48.1081 33.9611 47.4155 34.2637 46.6424 34.4549C45.8693 34.6142 45.1284 34.6938 44.4197 34.6938V17.8726C44.4197 17.4903 44.3875 17.1239 44.3231 16.7735C44.2908 16.423 44.1942 16.1204 44.0331 15.8655C43.9043 15.5788 43.6949 15.3558 43.405 15.1965C43.1473 15.0053 42.7768 14.9097 42.2936 14.9097C42.0359 14.9097 41.7621 14.9575 41.4722 15.0531C41.2145 15.1168 40.9729 15.2443 40.7474 15.4354C40.6186 15.1805 40.538 14.9416 40.5058 14.7186C40.4736 14.4637 40.4575 14.2089 40.4575 13.954C40.4575 12.9345 40.8924 12.0903 41.7621 11.4212C42.6319 10.7522 43.6788 10.4177 44.9029 10.4177C46.8357 10.4177 48.3175 10.9115 49.3483 11.8991C50.3791 12.8549 50.8945 14.2407 50.8945 16.0566V29.0549Z" fill="#615EFC"/>
<path d="M68.5736 40.1695H68.0904C67.2529 40.1695 66.4475 40.0898 65.6744 39.9306C64.9013 39.7713 64.2087 39.4845 63.5967 39.0704C63.0168 38.6562 62.5336 38.0828 62.1471 37.35C61.7927 36.6173 61.6156 35.6615 61.6156 34.4828V5.47567H62.3887C63.1618 5.47567 63.9188 5.57124 64.6597 5.76239C65.4006 5.92168 66.061 6.22434 66.6408 6.67036C67.2206 7.08452 67.6877 7.65797 68.0421 8.39071C68.3964 9.12346 68.5736 10.0633 68.5736 11.2102V40.1695ZM51.1785 10.2066C51.1785 9.66505 51.2752 9.12346 51.4684 8.58186C51.6617 8.04027 51.9677 7.54646 52.3865 7.10045C52.8053 6.65443 53.3207 6.30398 53.9327 6.04912C54.5448 5.76239 55.2696 5.61903 56.1071 5.61903C56.9769 5.61903 57.7178 5.77832 58.3298 6.0969C58.9419 6.38363 59.4251 6.75 59.7794 7.19602C60.166 7.61018 60.4398 8.07213 60.6009 8.58186C60.7941 9.05974 60.8908 9.48983 60.8908 9.87213C60.8908 10.127 60.8747 10.3659 60.8425 10.5889C60.8425 10.7801 60.7941 11.0031 60.6975 11.258C60.2465 10.8757 59.7311 10.6845 59.1513 10.6845C58.6681 10.6845 58.2654 10.8438 57.9433 11.1624C57.6211 11.4491 57.4601 11.8951 57.4601 12.5004V14.842C57.2024 14.9058 56.8802 14.9376 56.4937 14.9376C56.0427 14.9376 55.5112 14.8898 54.8991 14.7943C54.2871 14.6668 53.7073 14.4279 53.1596 14.0774C52.612 13.727 52.1449 13.2491 51.7584 12.6438C51.3718 12.0385 51.1785 11.2261 51.1785 10.2066ZM79.0589 10.2066C79.0589 11.2261 78.8657 12.0385 78.4791 12.6438C78.0926 13.2491 77.6255 13.727 77.0778 14.0774C76.5302 14.4279 75.9504 14.6668 75.3383 14.7943C74.7263 14.8898 74.1948 14.9376 73.7438 14.9376C73.3572 14.9376 73.0351 14.9058 72.7774 14.842V12.6438C72.7774 11.9748 72.6163 11.481 72.2942 11.1624C71.9721 10.8438 71.5694 10.6845 71.0862 10.6845C70.4742 10.6845 69.9588 10.8757 69.54 11.258C69.4433 11.0031 69.3789 10.7801 69.3467 10.5889C69.3467 10.3659 69.3467 10.127 69.3467 9.87213C69.3467 9.48983 69.4272 9.05974 69.5883 8.58186C69.7816 8.07213 70.0554 7.61018 70.4097 7.19602C70.7963 6.75 71.2795 6.38363 71.8593 6.0969C72.4714 5.77832 73.1962 5.61903 74.0337 5.61903C74.9035 5.61903 75.6444 5.76239 76.2564 6.04912C76.9007 6.33584 77.4161 6.70221 77.8026 7.14823C78.2214 7.56239 78.5274 8.0562 78.7207 8.62965C78.9462 9.17124 79.0589 9.69691 79.0589 10.2066Z" fill="#615EFC"/>
<path d="M87.9456 40.1695H87.4624C86.7215 40.1695 85.9967 40.0898 85.288 39.9306C84.5793 39.7394 83.9351 39.4367 83.3552 39.0226C82.8076 38.5766 82.3566 38.0031 82.0023 37.3022C81.6479 36.6013 81.4708 35.7412 81.4708 34.7217V21.8668C81.4708 20.1146 81.8895 18.681 82.7271 17.5659C83.5968 16.4509 84.9981 15.8934 86.9309 15.8934C88.2194 15.8934 89.2824 16.2279 90.12 16.8969C90.9575 17.5341 91.3763 18.5695 91.3763 20.0031C91.3763 20.481 91.3119 20.8314 91.183 21.0544C90.732 20.6721 90.2488 20.481 89.7334 20.481C89.0247 20.481 88.5415 20.7199 88.2838 21.1978C88.0583 21.6757 87.9456 22.1854 87.9456 22.727V40.1695ZM92.246 15.9412C92.4071 15.9093 92.5682 15.8934 92.7292 15.8934H93.2124C94.9519 15.8934 96.3049 16.3394 97.2713 17.2314C98.2377 18.0916 98.7209 19.3341 98.7209 20.9589V23.5872C98.7209 25.7536 98.1733 27.3624 97.078 28.4137C95.9828 29.4651 94.6459 29.9907 93.0675 29.9907H92.7292C91.5051 29.927 90.5065 29.5288 89.7334 28.796C88.9925 28.0314 88.6221 27.1235 88.6221 26.0721C88.6221 25.9128 88.6221 25.7695 88.6221 25.642C88.6543 25.5146 88.7187 25.3235 88.8154 25.0686C89.0731 25.3235 89.2985 25.5146 89.4918 25.642C89.6851 25.7695 90.0072 25.8332 90.4582 25.8332C91.1991 25.8332 91.6823 25.5783 91.9078 25.0686C92.1333 24.527 92.246 23.9058 92.246 23.2049V15.9412ZM98.5276 35.5341C98.5276 36.4261 98.3665 37.1748 98.0444 37.7801C97.7545 38.3536 97.3679 38.8314 96.8847 39.2137C96.4015 39.5642 95.87 39.8191 95.2902 39.9783C94.7103 40.1058 94.1466 40.1695 93.599 40.1695C91.9561 40.1695 90.7965 39.7713 90.12 38.9748C89.4435 38.1783 89.1053 37.2863 89.1053 36.2987C89.1053 36.1394 89.1053 35.9482 89.1053 35.7252C89.1375 35.5022 89.218 35.2633 89.3469 35.0084C89.7656 35.3907 90.2488 35.5819 90.7965 35.5819C91.5696 35.5182 92.0206 35.2633 92.1494 34.8173C92.2783 34.3713 92.3427 33.8137 92.3427 33.1447V31.3766C92.8259 31.2491 93.4057 31.1854 94.0822 31.1854C94.9197 31.1854 95.6123 31.3128 96.1599 31.5677C96.7398 31.8226 97.2069 32.1571 97.5612 32.5713C97.9156 32.9854 98.1571 33.4633 98.286 34.0049C98.4471 34.5146 98.5276 35.0244 98.5276 35.5341Z" fill="#615EFC"/>
<path d="M109.321 40.1695H108.886C108.146 40.1695 107.405 40.0898 106.664 39.9306C105.955 39.7394 105.311 39.4367 104.731 39.0226C104.183 38.5766 103.732 38.0031 103.378 37.3022C103.024 36.6013 102.847 35.7412 102.847 34.7217V21.5323C102.847 20.3854 103.04 19.4456 103.426 18.7128C103.813 17.9801 104.312 17.4066 104.924 16.9925C105.536 16.5783 106.229 16.2916 107.002 16.1323C107.775 15.973 108.548 15.8934 109.321 15.8934V40.1695ZM120 20.6243C120 21.1022 119.919 21.596 119.758 22.1058C119.63 22.6155 119.388 23.0774 119.034 23.4916C118.679 23.9058 118.212 24.2403 117.632 24.4951C117.085 24.75 116.392 24.8774 115.555 24.8774C114.878 24.8774 114.298 24.8137 113.815 24.6863V23.0615C113.815 22.3606 113.686 21.7713 113.429 21.2934C113.171 20.8155 112.672 20.5447 111.931 20.481C111.576 20.481 111.27 20.5447 111.013 20.6721C110.787 20.7677 110.562 20.8951 110.336 21.0544C110.111 20.6084 109.998 20.0987 109.998 19.5252C109.998 18.5695 110.417 17.7252 111.254 16.9925C112.092 16.2597 113.251 15.8934 114.733 15.8934H115.071C115.619 15.9252 116.183 16.0367 116.763 16.2279C117.342 16.419 117.874 16.7058 118.357 17.0881C118.84 17.4704 119.227 17.9642 119.517 18.5695C119.839 19.1429 120 19.8279 120 20.6243ZM120 35.5341C120 36.2987 119.839 36.9677 119.517 37.5412C119.227 38.1146 118.84 38.5925 118.357 38.9748C117.874 39.3571 117.342 39.6438 116.763 39.835C116.183 40.0261 115.619 40.1376 115.071 40.1695H114.733C113.251 40.1695 112.092 39.8031 111.254 39.0704C110.417 38.3376 109.998 37.4934 109.998 36.5376C109.998 35.9642 110.111 35.4544 110.336 35.0084C110.755 35.3907 111.238 35.5819 111.786 35.5819C112.591 35.5182 113.123 35.2474 113.38 34.7695C113.67 34.2916 113.815 33.7022 113.815 33.0013V31.3766C114.298 31.2491 114.878 31.1854 115.555 31.1854C116.392 31.1854 117.085 31.3128 117.632 31.5677C118.212 31.8226 118.679 32.1571 119.034 32.5713C119.388 32.9854 119.63 33.4633 119.758 34.0049C119.919 34.5146 120 35.0244 120 35.5341Z" fill="#615EFC"/>
</svg>
